<?xml version="1.0" standalone="no"?>
<!DOCTYPE svg PUBLIC "-//W3C//DTD SVG 20010904//EN"
 "http://www.w3.org/TR/2001/REC-SVG-20010904/DTD/svg10.dtd">
<svg version="1.0" xmlns="http://www.w3.org/2000/svg"
 viewBox="0 0 3524.000000 504.000000"
 preserveAspectRatio="xMidYMid meet">

<g transform="translate(0.000000,504.000000) scale(0.100000,-0.100000)"
fill="#000000" stroke="none">
<path d="M370 4784 c-63 -27 -110 -86 -110 -137 0 -15 -16 -41 -44 -68 -50
-51 -63 -96 -45 -161 12 -46 65 -104 103 -114 21 -5 24 -14 30 -67 4 -34 24
-186 46 -337 82 -579 120 -1200 146 -2380 3 -124 7 -240 10 -257 6 -42 65 -99
116 -115 71 -21 151 19 190 95 21 41 21 48 14 402 -4 198 -11 466 -16 595 -5
129 -12 312 -15 406 l-7 171 99 12 c326 39 594 62 778 67 116 3 229 10 253 16
52 13 108 72 118 123 15 80 -48 177 -122 191 -115 21 -822 -24 -1111 -71 -37
-6 -33 -19 -53 205 -17 192 -38 375 -70 595 -16 110 -32 232 -36 271 l-6 72
78 6 c44 4 234 11 424 16 190 5 368 12 395 15 28 3 124 9 215 14 116 6 175 13
195 24 100 52 120 177 42 260 -54 58 -101 63 -415 44 -147 -9 -406 -22 -576
-28 -170 -5 -330 -13 -356 -16 l-47 -5 -11 45 c-8 30 -23 55 -48 77 -60 52
-102 61 -164 34z"/>
<path d="M11882 4641 c-35 -9 -141 -120 -164 -169 -21 -46 -18 -88 9 -130 11
-18 12 -31 4 -55 -6 -18 -38 -173 -71 -346 -34 -173 -99 -466 -145 -652 -47
-186 -110 -444 -140 -574 -30 -129 -59 -245 -64 -257 -5 -13 -14 -52 -21 -88
-6 -36 -38 -166 -70 -290 -33 -124 -73 -290 -90 -370 -17 -80 -39 -182 -49
-227 -26 -112 -13 -168 52 -217 66 -50 145 -46 208 11 46 42 54 66 103 308 31
152 168 701 177 709 5 5 159 64 464 178 132 49 299 113 372 143 l131 53 118
-296 c104 -264 154 -399 280 -767 102 -295 127 -345 196 -381 67 -35 173 -3
207 64 32 63 34 94 10 153 -27 69 -45 118 -172 489 -58 168 -160 440 -227 605
-114 278 -123 304 -121 360 2 69 -21 115 -69 143 -32 18 -26 6 -218 462 -38
91 -98 237 -132 325 -90 227 -206 452 -288 560 -46 60 -71 103 -75 128 -15 95
-117 156 -215 128z m215 -816 c28 -66 74 -176 102 -245 27 -69 95 -233 150
-365 l99 -240 -25 -13 c-41 -22 -211 -89 -451 -177 -125 -45 -234 -86 -244
-90 -20 -8 -13 28 111 520 49 192 108 447 132 566 50 251 40 248 126 44z"/>
<path d="M17435 4582 c-40 -13 -72 -43 -90 -82 -19 -42 -18 -114 5 -320 14
-132 33 -631 23 -641 -4 -4 -41 1 -82 11 -86 23 -285 27 -404 9 -85 -13 -274
-77 -366 -124 -86 -43 -198 -139 -261 -222 -70 -93 -144 -249 -176 -373 -25
-94 -28 -122 -27 -265 1 -290 52 -487 174 -667 49 -73 213 -239 279 -284 55
-36 165 -90 236 -114 177 -61 419 -45 590 39 66 32 80 36 82 22 19 -96 57
-143 131 -165 77 -22 143 10 184 89 20 40 20 49 14 745 -3 388 -10 791 -16
895 -6 105 -15 348 -21 540 -11 339 -30 621 -51 755 -9 58 -17 75 -54 116 -34
37 -115 53 -170 36z m-157 -1377 c133 -45 119 8 133 -499 l11 -440 -25 -50
c-14 -28 -41 -93 -59 -145 -50 -143 -81 -189 -153 -225 -52 -27 -72 -31 -160
-34 -173 -7 -295 46 -433 188 -121 124 -165 214 -192 390 -16 109 -13 299 6
373 36 143 141 297 247 364 42 27 150 68 247 95 99 27 268 19 378 -17z"/>
<path d="M18304 4561 c-46 -12 -89 -46 -109 -87 -16 -33 -16 -72 -6 -562 7
-290 18 -648 26 -797 25 -469 35 -747 45 -1207 10 -500 10 -496 81 -547 81
-59 194 -29 238 63 21 43 21 44 11 532 -5 269 -13 549 -16 623 l-7 134 94 -50
c303 -162 390 -217 555 -349 249 -198 530 -496 693 -734 24 -36 55 -77 68 -91
91 -99 245 -61 278 68 9 34 11 63 5 82 -12 42 -94 160 -232 333 -142 178 -237
279 -408 433 -273 247 -481 390 -791 545 -57 29 -105 54 -107 55 -12 11 403
513 707 855 151 170 301 326 355 370 70 57 100 114 93 177 -14 126 -149 184
-263 112 -62 -40 -283 -265 -467 -478 -78 -90 -186 -213 -239 -275 -54 -61
-157 -184 -230 -273 l-133 -161 -7 46 c-3 26 -11 276 -17 556 -12 542 -12 538
-64 587 -38 36 -101 52 -153 40z"/>
<path d="M9555 3925 c-156 -38 -294 -129 -387 -253 -97 -130 -143 -269 -135
-402 13 -198 94 -333 291 -485 96 -74 276 -177 365 -210 230 -84 398 -172 497
-259 56 -49 110 -140 120 -203 12 -76 -36 -230 -103 -326 -54 -77 -152 -120
-304 -133 -96 -8 -174 11 -299 74 -77 39 -103 57 -140 104 -64 80 -140 211
-161 279 -25 80 -55 136 -83 154 -39 26 -86 35 -129 25 -57 -12 -88 -38 -115
-95 l-24 -48 21 -86 c45 -185 226 -472 354 -560 66 -45 197 -109 281 -136 323
-106 690 -12 864 220 53 71 106 176 138 275 26 76 29 98 28 215 0 114 -4 138
-26 197 -37 99 -84 172 -163 256 -112 119 -234 194 -489 297 -209 85 -265 112
-367 180 -175 116 -244 220 -219 330 24 105 92 192 185 237 83 39 114 43 196
24 117 -26 201 -77 305 -183 93 -95 123 -113 192 -113 72 0 152 85 152 162 0
18 -9 51 -19 73 -23 51 -210 231 -291 280 -167 102 -387 147 -535 110z"/>
<path d="M25935 3921 c-199 -58 -351 -184 -443 -367 -44 -88 -62 -162 -62
-256 0 -203 87 -360 282 -505 161 -121 256 -172 503 -271 416 -166 548 -334
459 -584 -70 -195 -159 -264 -365 -283 -100 -9 -170 6 -289 61 -106 50 -133
72 -195 159 -67 94 -102 159 -131 242 -42 121 -68 154 -136 173 -78 22 -176
-33 -199 -111 -37 -121 135 -468 313 -635 75 -70 226 -149 363 -191 81 -24
106 -27 240 -27 135 0 159 3 240 28 188 57 328 170 413 334 139 267 145 492
18 706 -59 99 -144 187 -249 257 -113 76 -184 111 -367 184 -331 131 -525 271
-560 404 -32 120 53 273 184 335 75 36 120 40 200 22 112 -26 195 -77 287
-174 89 -94 133 -122 194 -122 48 0 114 38 139 80 18 32 21 115 6 155 -22 57
-209 230 -319 295 -161 94 -383 133 -526 91z"/>
<path d="M5635 3855 c-17 -6 -429 -34 -600 -41 -241 -9 -442 -31 -479 -52 -45
-27 -74 -75 -82 -140 -3 -31 -14 -68 -24 -82 -29 -43 -30 -82 -4 -206 14 -66
39 -209 55 -319 16 -110 33 -229 39 -265 6 -36 17 -114 25 -175 9 -60 24 -166
34 -235 11 -69 26 -190 35 -270 59 -521 65 -562 83 -587 10 -14 29 -44 43 -66
45 -72 73 -80 314 -85 198 -4 737 17 971 38 55 5 133 9 173 10 84 0 117 14
154 63 38 49 46 115 19 169 -45 93 -109 107 -401 89 -354 -23 -501 -30 -734
-37 -198 -6 -236 -5 -240 7 -3 8 -21 164 -42 348 -40 367 -41 350 26 351 19 0
62 5 95 10 130 21 259 32 461 38 202 7 212 8 247 32 103 69 98 227 -8 283 -37
19 -54 21 -210 18 -155 -2 -336 -16 -520 -40 -38 -5 -95 -11 -125 -12 l-55 -3
-12 79 c-6 44 -21 143 -32 220 -12 77 -26 174 -32 215 -6 41 -19 113 -30 159
-11 46 -17 87 -12 91 4 4 112 12 238 18 127 7 329 19 450 27 121 9 295 19 388
24 165 7 167 8 205 37 76 62 91 145 39 223 -42 64 -70 71 -269 70 -95 0 -177
-2 -183 -4z"/>
<path d="M21905 3855 c-16 -6 -428 -34 -600 -41 -213 -8 -440 -31 -473 -48
-54 -28 -91 -94 -92 -164 0 -18 -10 -46 -21 -62 -29 -38 -29 -108 -1 -225 12
-49 35 -184 52 -300 95 -646 120 -824 135 -955 65 -588 57 -540 110 -619 68
-102 70 -103 324 -109 203 -4 737 17 976 38 55 5 134 9 175 10 88 0 125 18
161 76 29 48 32 125 5 169 -47 80 -115 93 -396 76 -354 -23 -501 -30 -734 -37
-198 -6 -236 -5 -240 7 -3 8 -17 118 -30 244 -14 127 -31 274 -37 327 -6 54
-9 105 -5 113 3 10 19 15 48 15 24 0 70 5 103 10 136 22 359 40 490 40 162 0
196 7 242 52 81 79 61 212 -41 265 -26 14 -59 16 -201 14 -93 -1 -235 -9 -315
-17 -365 -39 -382 -40 -385 -30 -5 14 -62 395 -70 466 -4 30 -18 106 -31 169
-13 63 -21 118 -17 121 5 4 114 12 243 19 129 6 361 20 515 31 154 11 314 20
356 20 110 0 137 8 184 54 35 33 45 50 50 88 10 66 -21 129 -79 163 -41 24
-49 25 -217 24 -96 0 -178 -2 -184 -4z"/>
<path d="M8065 3819 c-71 -5 -209 -13 -305 -20 -96 -6 -337 -13 -535 -16 -217
-3 -365 -9 -372 -15 -7 -6 -13 -28 -13 -49 0 -42 42 -183 72 -243 l20 -39 238
5 238 4 6 -50 c13 -108 18 -789 6 -891 -13 -113 -26 -983 -16 -1039 15 -79
110 -144 187 -129 56 10 117 58 129 101 5 21 12 209 14 427 2 215 10 473 16
575 10 154 8 907 -3 1005 -2 18 5 20 53 22 30 1 179 10 330 19 306 19 330 25
372 93 45 73 14 187 -62 230 -42 23 -123 26 -375 10z"/>
<path d="M15225 3807 c-22 -12 -50 -40 -63 -62 -21 -36 -23 -48 -17 -130 3
-49 12 -281 20 -515 15 -403 26 -607 41 -747 4 -36 3 -63 -2 -63 -5 0 -47 71
-94 156 -162 297 -348 563 -586 839 -99 115 -167 184 -397 410 l-59 57 -69 -4
c-59 -3 -72 -8 -98 -33 -17 -15 -38 -48 -47 -72 -20 -51 -19 -68 27 -543 6
-63 15 -378 20 -700 11 -680 22 -981 40 -1030 19 -56 49 -91 93 -111 90 -41
172 -7 221 91 16 31 17 43 5 115 -8 51 -15 300 -21 695 -4 338 -13 693 -18
789 -6 96 -9 177 -7 179 5 5 158 -174 237 -278 199 -260 331 -480 618 -1029
56 -106 110 -205 120 -220 10 -14 40 -68 67 -119 57 -110 88 -137 155 -137 64
0 155 48 192 101 l29 42 -17 148 c-38 341 -44 396 -59 539 -27 270 -46 564
-57 900 -21 646 -22 647 -85 707 -57 53 -124 62 -189 25z"/>
<path d="M2947 3750 c-55 -11 -111 -32 -152 -55 l-66 -36 -44 17 c-84 32 -172
-2 -210 -82 -16 -34 -16 -48 -4 -198 11 -123 13 -362 12 -1022 l-3 -861 23
-34 c35 -52 82 -79 139 -79 60 0 98 19 135 67 l28 36 5 326 5 326 30 3 c22 2
44 -7 84 -37 69 -52 413 -359 648 -578 168 -158 184 -171 228 -177 128 -20
238 122 181 232 -15 30 -163 171 -504 481 -123 112 -222 207 -220 211 2 5 34
31 72 59 131 95 257 260 330 433 60 141 70 189 70 333 0 116 -3 139 -28 210
-114 331 -413 499 -759 425z m285 -342 c56 -24 119 -90 148 -154 43 -98 34
-223 -25 -350 -73 -160 -172 -271 -308 -347 l-85 -48 -65 33 -66 33 -5 320
c-5 377 -1 399 81 472 45 41 69 50 173 67 41 7 100 -3 152 -26z"/>
<path d="M30115 3736 c-46 -21 -73 -55 -215 -276 -73 -113 -147 -223 -164
-245 -18 -22 -79 -106 -135 -188 -57 -81 -107 -149 -111 -152 -8 -5 -61 58
-210 245 -183 230 -410 469 -464 490 -40 15 -113 12 -146 -5 -49 -25 -80 -81
-80 -143 0 -67 15 -95 82 -157 29 -28 87 -88 128 -136 122 -139 478 -576 487
-597 3 -6 -26 -63 -65 -125 -39 -61 -100 -162 -135 -224 -36 -61 -101 -163
-145 -225 -43 -62 -105 -158 -136 -212 -32 -55 -76 -126 -99 -159 -63 -89 -76
-118 -77 -165 -1 -94 65 -162 157 -164 65 -2 109 25 167 101 42 54 156 235
156 247 0 3 46 74 103 157 57 84 140 215 185 292 45 77 90 150 100 163 l18 23
135 -172 c154 -199 328 -456 412 -610 96 -175 163 -227 261 -199 49 14 103 60
112 97 13 50 -2 127 -36 183 -18 30 -49 84 -68 120 -95 175 -211 344 -457 665
-82 108 -154 202 -160 210 -6 10 21 59 105 182 62 92 139 202 171 244 32 42
93 130 135 195 42 66 103 158 136 206 32 48 66 104 74 125 54 129 -91 267
-221 209z"/>
<path d="M23311 3719 c-46 -28 -65 -52 -106 -134 -69 -141 -100 -368 -92 -680
12 -451 127 -805 320 -981 131 -120 217 -155 393 -162 283 -11 470 80 679 330
l73 88 8 -68 c4 -37 4 -256 1 -487 -7 -466 -17 -578 -66 -724 -73 -218 -160
-333 -306 -403 -82 -39 -84 -40 -139 -28 -68 14 -112 48 -139 110 -17 38 -20
64 -19 170 1 115 -1 128 -24 167 -65 112 -227 105 -284 -13 -19 -38 -22 -62
-23 -177 -1 -207 42 -325 158 -443 70 -71 136 -107 243 -135 139 -35 218 -25
377 51 188 90 323 236 418 455 125 288 143 458 133 1260 -3 297 -10 610 -16
695 -6 85 -10 275 -10 421 0 239 -2 281 -25 413 -27 161 -58 238 -106 265 -24
13 -31 13 -72 -3 -53 -20 -131 -86 -169 -143 l-26 -38 14 -145 c48 -493 46
-441 19 -534 -47 -162 -134 -361 -194 -443 -54 -74 -224 -244 -266 -265 -103
-53 -239 -63 -328 -24 -61 27 -135 104 -172 181 -141 291 -166 936 -45 1175
32 63 40 133 19 173 -45 87 -152 123 -228 76z"/>
<path d="M31084 3726 c-82 -36 -152 -188 -184 -402 -53 -350 -33 -641 66 -989
56 -193 121 -304 249 -424 114 -106 237 -151 416 -151 176 0 329 50 453 149
62 50 177 165 233 234 l31 39 6 -274 c8 -302 -5 -690 -28 -838 -44 -281 -170
-491 -343 -573 -82 -38 -133 -40 -200 -6 -38 19 -53 35 -73 74 -23 46 -25 62
-25 180 -1 102 -4 137 -17 161 -27 49 -73 82 -125 90 -39 6 -55 3 -92 -17 -87
-46 -108 -112 -99 -308 14 -279 161 -465 415 -526 193 -46 422 40 596 224 82
87 129 159 183 281 124 280 151 521 140 1245 -3 237 -11 520 -18 630 -6 110
-11 326 -10 479 2 261 1 289 -24 425 -32 180 -57 248 -102 274 -31 18 -35 19
-77 3 -56 -22 -114 -68 -161 -129 l-37 -47 16 -163 c40 -393 42 -441 22 -514
-24 -87 -96 -267 -146 -364 -47 -89 -230 -298 -299 -341 -99 -60 -256 -76
-345 -34 -64 30 -139 110 -175 189 -75 160 -120 404 -121 652 -1 250 22 408
77 517 40 79 42 119 11 179 -41 77 -133 109 -213 75z"/>
<path d="M33886 3689 c-98 -14 -246 -58 -321 -94 -177 -87 -338 -257 -418
-443 -47 -111 -33 -198 44 -254 29 -22 95 -34 134 -24 46 12 101 71 124 135
25 68 93 164 154 217 46 39 159 96 222 113 218 56 455 10 526 -103 44 -69 6
-199 -90 -309 -136 -156 -260 -237 -548 -358 -207 -88 -231 -105 -219 -155 11
-42 69 -124 128 -182 l55 -53 45 10 c25 6 128 11 229 11 238 2 315 -17 409
-97 38 -32 96 -111 88 -118 -2 -1 -82 -49 -178 -105 -382 -224 -579 -381 -712
-566 -182 -256 -256 -447 -246 -645 5 -114 43 -195 126 -269 114 -102 310
-168 462 -156 335 27 616 234 787 579 53 106 122 312 154 457 19 90 23 134 23
305 0 174 -3 212 -23 293 -50 204 -128 351 -244 458 -91 85 -137 111 -275 159
-8 3 31 49 96 114 227 226 320 441 278 641 -22 102 -55 166 -131 248 -144 156
-409 230 -679 191z m654 -2106 c-1 -205 -97 -542 -199 -700 -51 -78 -175 -203
-235 -236 -115 -64 -238 -82 -348 -51 -76 22 -118 60 -118 107 0 51 36 161 83
252 108 208 261 357 559 544 103 65 238 141 251 141 4 0 7 -26 7 -57z"/>
<path d="M27766 1939 c-97 -24 -165 -60 -216 -115 -86 -93 -110 -201 -70 -308
32 -83 142 -194 223 -225 88 -32 178 -29 255 9 75 38 115 83 161 180 66 143
52 264 -43 367 -94 101 -175 126 -310 92z"/>
</g>
</svg>
