<svg version="1.0" xmlns="http://www.w3.org/2000/svg" viewBox="0 0 450.000000 73.000000"
 preserveAspectRatio="xMidYMid meet">
<g transform="translate(0.000000,73.000000) scale(0.100000,-0.100000)"
fill="#000000" stroke="none">
<path d="M56 695 c-18 -18 -21 -46 -7 -60 13 -14 31 -199 31 -323 0 -109 8
-136 37 -125 12 5 14 28 12 122 l-3 116 87 9 c77 7 87 11 87 28 0 19 -5 20
-89 16 l-89 -4 -7 60 c-3 34 -9 71 -12 83 -5 22 -2 22 94 25 90 3 98 5 98 23
0 19 -7 20 -96 20 -63 0 -101 4 -111 13 -13 10 -19 10 -32 -3z m35 -38 c-1
-12 -15 -9 -19 4 -3 6 1 10 8 8 6 -3 11 -8 11 -12z"/>
<path d="M1958 679 c-11 -6 -18 -22 -18 -41 0 -17 -21 -118 -46 -225 -32 -136
-43 -198 -36 -205 21 -21 38 1 51 66 7 36 18 69 25 74 28 21 130 52 136 42 4
-6 20 -48 35 -93 32 -94 48 -118 67 -99 11 11 6 31 -20 105 -19 51 -36 103
-39 117 -3 14 -11 32 -18 40 -6 8 -24 46 -39 83 -22 57 -71 148 -79 147 -1 0
-10 -5 -19 -11z m32 -59 c9 -16 8 -18 -5 -14 -8 4 -15 12 -15 20 0 20 7 17 20
-6z m45 -153 c5 -20 -1 -25 -46 -44 l-51 -22 6 22 c3 12 14 55 23 96 l18 74
22 -52 c13 -28 25 -61 28 -74z m-100 -77 c3 -5 1 -10 -4 -10 -6 0 -11 5 -11
10 0 6 2 10 4 10 3 0 8 -4 11 -10z"/>
<path d="M2744 670 c-5 -5 -7 -38 -4 -75 l5 -65 -46 0 c-52 0 -105 -30 -127
-70 -8 -15 -12 -49 -9 -87 2 -53 8 -67 31 -92 41 -42 79 -56 121 -44 27 9 35
8 39 -3 7 -19 32 -18 40 2 9 23 -5 393 -15 422 -9 24 -19 28 -35 12z m4 -257
c4 -81 -17 -133 -53 -133 -83 0 -125 111 -65 171 25 26 36 30 72 27 l43 -3 3
-62z m22 -133 c0 -13 -5 -18 -15 -14 -12 5 -13 10 -4 20 15 19 19 18 19 -6z"/>
<path d="M3134 448 c4 -123 11 -227 16 -232 6 -6 15 -4 23 3 11 9 13 31 9 102
l-5 91 30 -15 c43 -23 113 -83 147 -128 33 -42 66 -52 66 -20 0 29 -106 139
-168 173 l-53 31 23 26 c140 154 164 191 123 191 -14 0 -155 -147 -155 -162 0
-4 -5 -8 -11 -8 -6 0 -8 7 -5 17 4 9 4 47 0 85 -6 59 -9 68 -27 68 -20 0 -20
-4 -13 -222z m51 0 c-3 -39 -25 -33 -25 7 0 30 3 35 13 26 8 -6 13 -21 12 -33z"/>
<path d="M1319 551 c-31 -31 -36 -59 -17 -94 14 -27 37 -44 102 -77 58 -29 71
-47 62 -83 -14 -57 -99 -46 -129 16 -19 38 -43 48 -53 23 -3 -8 4 -33 16 -56
53 -103 202 -85 217 26 7 52 -15 78 -103 124 -74 37 -90 63 -59 94 23 22 39
20 74 -10 25 -21 34 -24 46 -14 32 26 -32 80 -95 80 -21 0 -41 -9 -61 -29z"/>
<path d="M4186 558 c-15 -13 -29 -37 -32 -54 -8 -41 30 -85 106 -122 65 -32
78 -50 64 -89 -7 -22 -17 -29 -41 -31 -43 -4 -72 13 -89 54 -15 35 -40 45 -50
19 -3 -8 4 -32 17 -54 58 -103 201 -86 216 26 7 52 -20 83 -107 126 -70 34
-83 56 -54 88 23 25 36 24 74 -7 29 -25 33 -26 47 -11 14 14 14 19 3 32 -39
47 -114 58 -154 23z"/>
<path d="M679 562 c-17 -2 -29 -11 -32 -24 -8 -30 31 -299 46 -316 9 -12 30
-13 112 -8 103 7 122 14 112 40 -5 12 -22 13 -100 9 l-94 -6 -6 49 c-3 27 -4
50 -3 51 2 2 31 6 65 9 34 4 64 11 67 16 13 21 -18 33 -80 30 l-63 -4 -7 52
c-4 29 -6 54 -4 55 2 2 40 5 86 6 91 3 108 9 99 34 -6 13 -20 16 -89 13 -46
-1 -95 -4 -109 -6z"/>
<path d="M1058 562 c-78 -3 -89 -9 -69 -41 6 -9 20 -12 40 -9 l30 4 3 -150 c3
-143 4 -151 23 -151 19 0 20 8 23 152 l3 152 52 3 c44 3 52 6 52 23 0 22 -7
23 -157 17z"/>
<path d="M2434 556 c-4 -9 -4 -59 -2 -111 2 -52 3 -95 2 -95 -1 0 -16 24 -32
53 -41 71 -121 159 -141 155 -14 -3 -16 -22 -13 -163 4 -179 7 -198 30 -193
15 3 17 20 17 136 l0 133 27 -33 c15 -18 49 -73 75 -121 55 -102 64 -111 85
-94 13 10 14 22 8 67 -5 30 -9 91 -10 135 -2 44 -5 93 -9 109 -7 33 -28 45
-37 22z m-140 -55 c3 -5 -1 -14 -9 -21 -13 -10 -15 -9 -15 9 0 21 14 28 24 12z
m164 -213 c-3 -21 -5 -21 -21 9 -19 36 -21 47 -8 38 5 -3 13 0 18 7 9 15 16
-19 11 -54z"/>
<path d="M3522 562 c-12 -2 -26 -11 -31 -20 -10 -20 26 -300 42 -319 11 -14
58 -16 160 -6 62 5 68 8 65 27 -3 20 -8 21 -99 17 l-97 -3 -3 51 -4 50 55 6
c71 8 80 11 80 29 0 20 -18 24 -83 16 -64 -7 -58 -12 -72 73 l-6 37 73 2 c40
0 78 2 83 3 6 2 16 3 23 4 6 0 12 10 12 22 0 19 -5 20 -87 18 -49 -2 -98 -5
-111 -7z"/>
<path d="M417 554 c-4 -4 -17 -7 -29 -8 -22 -1 -23 -3 -24 -153 -1 -83 2 -157
6 -164 5 -6 15 -9 24 -6 12 5 16 20 16 57 0 27 3 50 6 50 3 0 35 -25 70 -56
40 -35 69 -54 79 -50 24 9 18 20 -39 74 l-53 50 30 30 c21 21 31 42 34 75 5
41 2 49 -25 77 -29 28 -78 41 -95 24z m74 -68 c9 -18 7 -30 -5 -54 -17 -34
-50 -57 -66 -47 -14 9 -12 99 2 113 20 20 57 14 69 -12z m-86 -125 c3 -5 1
-12 -5 -16 -5 -3 -10 1 -10 9 0 18 6 21 15 7z"/>
<path d="M3851 551 c-37 -23 -32 -187 7 -240 36 -49 102 -51 148 -6 14 14 26
25 27 25 9 0 -8 -181 -19 -202 -24 -46 -74 -49 -74 -4 0 33 -23 51 -40 31 -18
-21 -4 -81 23 -100 33 -23 63 -18 102 16 50 44 57 83 53 285 -3 182 -10 211
-43 184 -13 -11 -15 -24 -10 -56 15 -103 -84 -211 -130 -140 -21 32 -30 117
-16 157 13 37 -3 65 -28 50z m197 -188 c2 -20 -1 -24 -9 -16 -7 7 -9 19 -6 27
9 23 12 20 15 -11z"/>
</g>
</svg>
